<?xml version="1.0" encoding="utf-8"?>
<?xml-stylesheet type="text/xsl" href="rss1.xsl"?>
<rss version="2.0" xmlns:atom="http://www.w3.org/2005/Atom" xmlns:content="http://purl.org/rss/1.0/modules/content/" xmlns:dc="http://purl.org/dc/elements/1.1/" xmlns:media="http://search.yahoo.com/mrss/">
<channel>
 <title>Getty</title>
 <link>http://www.gettyimg.com/</link>
 <atom:link href="http://www.gettyimg.com/" rel="self" type="application/rss+xml" />

 
                <item>
                <title><![CDATA[【Music Videos】Depeche Mode - People Are People (1080p 5.1) (Clean)]]></title>
                <link><![CDATA[https://sharemania.us/threads/depeche-mode-people-are-people-1080p-5-1-clean.247575/]]></link>
                <description><![CDATA[<article>
<blockquote class="messageText SelectQuoteContainer ugc baseHtml">
<img src="https://i.ibb.co/B409Vr8/Depeche-Mode-People-Are-People-1080p-5-1-mp4-thumbs-2024-06-21-19-46-43.jpg" class="bbCodeImage LbImage" alt="[​IMG]" data-url="https://i.ibb.co/B409Vr8/Depeche-Mode-People-Are-People-1080p-5-1-mp4-thumbs-2024-06-21-19-46-43.jpg" style=""> <br>
<br>
<div class="ToggleTriggerAnchor bbCodeSpoilerContainer">
<button type="button" class="button bbCodeSpoilerButton ToggleTrigger Tooltip JsOnly" data-target="> .SpoilerTarget"><span>Spoiler: <span class="SpoilerTitle">MediaInfo</span></span></button>
<div class="SpoilerTarget bbCodeSpoilerText">Depeche Mode - People Are People (1080p 5.1).mp4<br>
Format : MPEG-4<br>
Format profile : Base Media / Version 2<br>
Codec ID : mp42 (mp42/mp41)<br>
File size : 286 MiB<br>
Duration : 3 min 52 s<br>
Overall bit rate mode : Variable<br>
Overall bit rate : 10.3 Mb/s<br>
Frame rate : 30.000 FPS<br>
Encoded date : 2024-06-21 22:42:10 UTC<br>
Tagged date : 2024-06-21 23:24:17 UTC<br>
TIM : 00:00:00:00<br>
TSC : 30<br>
TSZ : 1<br>
<br>
Video<br>
ID : 1<br>
Format : AVC<br>
Format/Info : Advanced Video Codec<br>
Format profile : Main@L4.1<br>
Format settings : CABAC / 4 Ref Frames<br>
Format settings, CABAC : Yes<br>
Format settings, Reference : 4 frames<br>
Codec ID : avc1<br>
Codec ID/Info : Advanced Video Coding<br>
Duration : 3 min 52 s<br>
Bit rate : 9 996 kb/s<br>
Width : 1 920 pixels<br>
Height : 1 080 pixels<br>
Display aspect ratio : 16:9<br>
Frame rate mode : Constant<br>
Frame rate : 30.000 FPS<br>
Color space : YUV<br>
Chroma subsampling : 4:2:0<br>
Bit depth : 8 bits<br>
Scan type : Progressive<br>
Bits/(Pixel*Frame) : 0.161<br>
Stream size : 277 MiB (97%)<br>
Language : English<br>
Encoded date : 2024-06-21 22:42:24 UTC<br>
Tagged date : 2024-06-21 22:42:24 UTC<br>
Color range : Limited<br>
Color primaries : BT.709<br>
Transfer characteristics : BT.709<br>
Matrix coefficients : BT.709<br>
Codec configuration box : avcC<br>
<br>
Audio<br>
ID : 2<br>
Format : AAC LC<br>
Format/Info : Advanced Audio Codec Low Complexity<br>
Codec ID : mp4a-40-2<br>
Duration : 3 min 52 s<br>
Source duration : 3 min 52 s<br>
Bit rate mode : Variable<br>
Bit rate : 317 kb/s<br>
Maximum bit rate : 1 033 kb/s<br>
Channel(s) : 6 channels<br>
Channel layout : C L R Ls Rs LFE<br>
Sampling rate : 48.0 kHz<br>
Frame rate : 46.875 FPS (1024 SPF)<br>
Compression mode : Lossy<br>
Stream size : 8.79 MiB (3%)<br>
Source stream size : 8.79 MiB (3%)<br>
Language : English<br>
Encoded date : 2024-06-21 22:42:18 UTC<br>
Tagged date : 2024-06-21 22:42:18 UTC</div>
</div><br>
<div class="bbCodeBlock bbCodeVfcHH HiddenContent">
<div class="attribution type">Hidden Content:</div>
<blockquote>You must reply before you can see the hidden data contained here.</blockquote>
</div>
<div class="messageTextEndMarker">&nbsp;</div>
</blockquote>
</article>]]></description>
                <author><![CDATA[DJ-RoGeRs-BS]]></author>
                </item>

                
                <item>
                <title><![CDATA[【Albums (lossy)】M4A - NewJeans - 2024 - Supernatural [EP] [24bit-44.1kHz]]]></title>
                <link><![CDATA[https://sharemania.us/threads/newjeans-2024-supernatural-ep-24bit-44-1khz.247574/]]></link>
                <description><![CDATA[<article>
<blockquote class="messageText SelectQuoteContainer ugc baseHtml">
<div style="text-align: center"><img src="https://static.qobuz.com/images/covers/ba/4n/nsm3x9h2z4nba_600.jpg" class="bbCodeImage LbImage" alt="[​IMG]" data-url="https://static.qobuz.com/images/covers/ba/4n/nsm3x9h2z4nba_600.jpg" style=""> <br>
<br>
<b>Band</b>: NewJeans<br>
<b>EP</b>: Supernatural<br>
<b>Date</b>: 21 June 2024<br>
<b>Genre</b>: K-Pop/J-Pop<br>
<b>Quality</b>: 24bit-44.1kHz<br>
<b>Country</b>: South Korea<br>
<b>Size</b>: 455,0MB<br>
<br>
<b>Tracklist</b>:<br>
​</div><span style="font-family: 'Helvetica Neue Light'"><div style="text-align: center"><span style="font-family: 'helvetica'">01 Supernatural 03:11</span>​</div></span><br>
<span style="font-family: 'Helvetica Neue Light'"><div style="text-align: center"><span style="font-family: 'helvetica'">02 Right Now 02:40</span>​</div></span><br>
<span style="font-family: 'Helvetica Neue Light'"><div style="text-align: center"><span style="font-family: 'helvetica'">03 Supernatural (Instrumental) 03:11</span>​</div></span><br>
<span style="font-family: 'Helvetica Neue Light'"><div style="text-align: center"><span style="font-family: 'helvetica'">04 Right Now (Instrumental) 02:40</span>​</div></span><br>
<span style="font-family: 'Helvetica Neue Light'"><div style="text-align: center">​</div></span><br>
<span style="font-family: 'Helvetica Neue Light'"><div style="text-align: center"><b><span style="font-family: 'helvetica'">Videos HDMV:</span></b>​</div></span><br>
<span style="font-family: 'Helvetica Neue Light'"><div style="text-align: center"><span style="font-family: 'helvetica'">05 Right Now 02:54</span>​</div></span><br>
<span style="font-family: 'Helvetica Neue Light'"><div style="text-align: center"><span style="font-family: 'helvetica'">06 Supernatural (Part 1) 03:11</span>​</div></span><br>
<span style="font-family: 'Helvetica Neue Light'"><div style="text-align: center">​</div></span><br>
<div style="text-align: center"><span style="font-family: 'helvetica'"><b><span style="font-size: 22px"><span style="color: #b30000">Send.cm</span></span></b>:<br>
<br>
<div class="bbCodeBlock bbCodeVfcHH HiddenContent">
<div class="attribution type">Hidden Content:</div>
<blockquote>You must either reply or click 'Like' to see the hidden information contained here.</blockquote>
</div></span>​</div>
<div class="messageTextEndMarker">&nbsp;</div>
</blockquote>
</article>]]></description>
                <author><![CDATA[XRB80]]></author>
                </item>

                
                <item>
                <title><![CDATA[【Requests】[REQ CAP] - Scouting For Girls at Isle of Wight Festival 2024]]></title>
                <link><![CDATA[https://sharemania.us/threads/scouting-for-girls-at-isle-of-wight-festival-2024.247573/]]></link>
                <description><![CDATA[<article>
<blockquote class="messageText SelectQuoteContainer ugc baseHtml">
Hi,<br>
I unfortunately missed Scouting For Girls who were at the Isle of Wight Festival 2024 on Thursday, did anyone manage to record that?<br>
Thanks a bunch!
<div class="messageTextEndMarker">&nbsp;</div>
</blockquote>
</article>]]></description>
                <author><![CDATA[ReliantRobin]]></author>
                </item>

                
                <item>
                <title><![CDATA[【Apple Music】WEB-RiP - YUNGBLUD - breakdown. 'Apple.Music.Web.1080-fstambuk']]></title>
                <link><![CDATA[https://sharemania.us/threads/yungblud-breakdown-apple-music-web-1080-fstambuk.247572/]]></link>
                <description><![CDATA[<article>
<blockquote class="messageText SelectQuoteContainer ugc baseHtml">
<div style="text-align: center"><img src="https://i.ibb.co/ts5rRY1/YUNGBLUD-breakdown-Apple-Music-Web-1080-fstambuk-VTM.gif" class="bbCodeImage LbImage" alt="[​IMG]" data-url="https://i.ibb.co/ts5rRY1/YUNGBLUD-breakdown-Apple-Music-Web-1080-fstambuk-VTM.gif" style=""><br>
​</div>
<div class="ToggleTriggerAnchor bbCodeSpoilerContainer">
<button type="button" class="button bbCodeSpoilerButton ToggleTrigger Tooltip JsOnly" data-target="> .SpoilerTarget"><span>Spoiler: <span class="SpoilerTitle">Apple Music</span></span></button>
<div class="SpoilerTarget bbCodeSpoilerText">
<div class="bbCodeBlock bbCodeCode">
<div class="type">Code:</div>
<pre>General
Complete name                            : YUNGBLUD - breakdown. 'Apple.Music.Web.1080-fstambuk'.m4v
Format                                   : MPEG-4
Codec ID                                 : M4V  (M4V /isom/iso2/avc1)
File size                                : 317 MiB
Duration                                 : 6 min 31 s
Overall bit rate mode                    : Variable
Overall bit rate                         : 6 792 kb/s
Frame rate                               : 25.000 FPS
Movie name                               : breakdown.
Performer                                : YUNGBLUD
Genre                                    : Alternative
ContentType                              : Music Video
Recorded date                            : 2024-06-21 07:00:00 UTC
Copyright                                : ℗ 2024 Locomotion Recordings Limited, under exclusive license to Geffen Records
Cover                                    : Yes
Rating                                   : Explicit
GenreID                                  : 1620
AppleStoreCountry                        : United States
AlbumTitleID                             : 213048599
AppleStoreCatalogID                      : 1753144848

Video
ID                                       : 1
Format                                   : AVC
Format/Info                              : Advanced Video Codec
Format profile                           : High@L4
Format settings                          : CABAC / 5 Ref Frames
Format settings, CABAC                   : Yes
Format settings, Reference frames        : 5 frames
Format settings, Slice count             : 8 slices per frame
Codec ID                                 : avc1
Codec ID/Info                            : Advanced Video Coding
Duration                                 : 6 min 31 s
Bit rate                                 : 6 526 kb/s
Width                                    : 1 920 pixels
Height                                   : 816 pixels
Display aspect ratio                     : 2.35:1
Frame rate mode                          : Constant
Frame rate                               : 25.000 FPS
Color space                              : YUV
Chroma subsampling                       : 4:2:0
Bit depth                                : 8 bits
Scan type                                : Progressive
Bits/(Pixel*Frame)                       : 0.167
Stream size                              : 304 MiB (96%)
Title                                    : Core Media Video
Language                                 : English
Color range                              : Limited
Color primaries                          : BT.709
Transfer characteristics                 : BT.709
Matrix coefficients                      : BT.709
Codec configuration box                  : avcC

Audio
ID                                       : 2
Format                                   : AAC LC
Format/Info                              : Advanced Audio Codec Low Complexity
Codec ID                                 : 2 / 40 / mp4a-40-2
Duration                                 : 6 min 31 s
Bit rate mode                            : Constant
Bit rate                                 : 252 kb/s
Channel(s)                               : 2 channels
Channel layout                           : L R
Sampling rate                            : 48.0 kHz
Frame rate                               : 46.875 FPS (1024 SPF)
Compression mode                         : Lossy
Stream size                              : 11.8 MiB (4%)
Title                                    : Core Media Audio
Default                                  : Yes
Alternate group                          : 1

Text
ID                                       : 3
Format                                   : Timed Text
Muxing mode                              : sbtl
Codec ID                                 : tx3g
Duration                                 : 6 min 30 s
Bit rate mode                            : Variable
Bit rate                                 : 108 b/s
Frame rate                               : 0.441 FPS
Stream size                              : 5.15 KiB (0%)
Title                                    : Core Media Closed Caption
Language                                 : English
Default                                  : Yes
Forced                                   : No
Alternate group                          : 3
Count of events                          : 130

</pre>
</div><div style="text-align: center">​</div></div>
</div><div style="text-align: center"><br>
<div class="bbCodeBlock bbCodeVfcHH HiddenContent">
<div class="attribution type">Hidden Content:</div>
<blockquote>You must reply before you can see the hidden data contained here.</blockquote>
</div></div>
<div class="messageTextEndMarker">&nbsp;</div>
</blockquote>
</article>]]></description>
                <author><![CDATA[fstambuk]]></author>
                </item>

                </channel></rss>